<svg xmlns="http://www.w3.org/2000/svg" id="Layer_2" data-name="Layer 2" viewBox="0 0 100.29 100.29"><defs><style>      .cls-1 {        fill: #fff;      }      .cls-2 {        fill: #003478;      }    </style></defs><g id="_Layer_" data-name=" Layer "><path class="cls-1" d="m85.13,0H15.16C6.79,0,0,6.79,0,15.16v69.97C0,93.51,6.79,100.29,15.16,100.29h69.97c8.37,0,15.16-6.79,15.16-15.16V15.16c0-8.37-6.79-15.16-15.16-15.16Z"></path></g><g id="_Layer_-2" data-name=" Layer "><g><path class="cls-2" d="m85.13,0H15.16C6.79,0,0,6.79,0,15.16v69.97c0,8.38,6.79,15.16,15.16,15.16h69.97c8.37,0,15.16-6.79,15.16-15.16V15.16c0-8.37-6.79-15.16-15.16-15.16Zm9.6,84.5c0,5.64-4.58,10.22-10.22,10.22H15.79c-5.64,0-10.22-4.57-10.22-10.22V15.78c0-5.64,4.57-10.21,10.22-10.21h68.72c5.64,0,10.22,4.58,10.22,10.21,0,0,0,68.72,0,68.72Z"></path><path class="cls-2" d="m84.6,61.26v.62c-.24,6.95-6.57,12.17-15,12.38-9.18.22-14.8-4.71-15-11.46h0v-9.89h-3.8v-9.29h3.8v-5.52h-7.42v30.65h-13v-30.65H15.59v-12.07h50.13v17.54h0v.05h16.71v9.29h-16.71v6.5c0,2.57,2.08,4.65,4.64,4.65,1.91,0,3.55-1.15,4.26-2.8h9.98Z"></path></g></g></svg>